<svg width="20" height="20" viewBox="0 0 20 20" fill="none" xmlns="http://www.w3.org/2000/svg">
<path d="M15.9484 8.65324C15.9484 12.7493 12.6507 16.0565 8.59922 16.0565C4.54773 16.0565 1.25 12.7493 1.25 8.65324C1.25 4.55715 4.54773 1.25 8.59922 1.25C12.6507 1.25 15.9484 4.55715 15.9484 8.65324Z" stroke="white" stroke-width="2.5"/>
<path opacity="0.4" d="M17.7853 19.5705L15.7488 17.1902C15.3122 16.7909 15.2765 16.1123 15.6688 15.6689C15.8524 15.4831 16.102 15.3787 16.3624 15.3787C16.6228 15.3787 16.8725 15.4831 17.0561 15.6689L19.6172 17.7181C19.9861 18.0957 20.0999 18.6563 19.9078 19.1492C19.7157 19.6422 19.2535 19.9754 18.7279 20L18.6745 19.9553C18.3405 19.9445 18.0228 19.807 17.7853 19.5705Z" fill="white"/>
</svg>
