<svg width="9" height="9" viewBox="0 0 9 9" fill="none" xmlns="http://www.w3.org/2000/svg">
<mask id="mask0_2_420" style="mask-type:luminance" maskUnits="userSpaceOnUse" x="-1" y="0" width="10" height="10">
<rect x="-0.000976668" width="9.00098" height="9.00098" fill="white"/>
</mask>
<g mask="url(#mask0_2_420)">
<path d="M1.61154 8.07359L2.07847 5.41268L0.0965655 3.52473C-0.088517 3.34808 0.00768088 3.02517 0.25577 2.99029L3.01119 2.59875L4.23983 0.164549C4.35065 -0.0548497 4.6505 -0.0548497 4.76132 0.164549L5.98996 2.59875L8.74538 2.99029C8.99347 3.02517 9.08967 3.34808 8.90458 3.52473L6.92268 5.41268L7.38961 8.07359C7.43349 8.32281 7.18709 8.51802 6.96994 8.40663L4.49973 7.13749L2.03065 8.40663H2.03121C1.81406 8.51802 1.56766 8.32281 1.61154 8.07359Z" fill="#F6CE42"/>
</g>
</svg>
