<svg width="12" height="18" viewBox="0 0 12 18" fill="none" xmlns="http://www.w3.org/2000/svg">
<path opacity="0.4" d="M7.51758 16.4967C7.51758 17.3269 6.83794 17.9999 5.99968 17.9999C5.16142 17.9999 4.48178 17.3269 4.48178 16.4967L4.80893 12.7975C4.80893 12.1462 5.34207 11.6182 5.99968 11.6182C6.65839 11.6182 7.19043 12.1462 7.19043 12.7975L7.51758 16.4967Z" fill="#F0887E"/>
<path d="M7.64017 0.852C8.92344 2.03562 11.0218 5.12613 11.664 6.74284C11.7665 6.98829 11.9846 7.60901 12 7.94173C12 8.25918 11.9262 8.56245 11.7808 8.85154C11.577 9.21263 11.2554 9.50062 10.8764 9.65989C10.6143 9.76135 9.82669 9.92062 9.81237 9.92062C8.95208 10.0788 7.55315 10.165 6.00661 10.165C4.53497 10.165 3.19332 10.0788 2.31871 9.94898C2.30329 9.9348 1.32623 9.77553 0.991371 9.60208C0.378924 9.28463 0 8.66391 0 7.99955V7.94173C0.0143194 7.50865 0.394346 6.59884 0.407564 6.59884C1.04975 5.06831 3.04681 2.05089 4.37415 0.837818C4.37415 0.837818 4.71562 0.495277 4.92822 0.346915C5.23444 0.115645 5.61337 1.04904e-05 5.99229 1.04904e-05C6.41527 1.04904e-05 6.80852 0.129827 7.13016 0.375278C7.18854 0.433096 7.43529 0.649094 7.64017 0.852Z" fill="#F0887E"/>
</svg>
